HIERARCHY
ROOT Hips
{
    OFFSET 0.000000 0.000000 0.000000
    CHANNELS 6 Xposition Yposition Zposition Zrotation Yrotation Xrotation
    JOINT Chest
    {
        OFFSET 0.000000 1.634758 -0.000000
        CHANNELS 3 Zrotation Yrotation Xrotation
        JOINT Chest2
        {
            OFFSET 0.000000 2.197341 0.000000
            CHANNELS 3 Zrotation Yrotation Xrotation
            JOINT Neck
            {
                OFFSET 0.000000 0.961544 0.000000
                CHANNELS 3 Zrotation Yrotation Xrotation
                JOINT Head
                {
                    OFFSET 0.000000 0.632542 -0.032565
                    CHANNELS 3 Zrotation Yrotation Xrotation
                    End Site
                    {
                        OFFSET -0.000001 0.439502 2.922845
                    }
                }
            }
            JOINT LeftCollar
            {
                OFFSET 0.167536 0.778237 -0.168280
                CHANNELS 3 Zrotation Yrotation Xrotation
                JOINT LeftShoulder
                {
                    OFFSET 0.831514 -0.002900 0.006458
                    CHANNELS 3 Zrotation Yrotation Xrotation
                    JOINT LeftElbow
                    {
                        OFFSET 2.272872 -0.026639 0.059314
                        CHANNELS 3 Zrotation Yrotation Xrotation
                        JOINT LeftWrist
                        {
                            OFFSET 2.081982 -0.024402 0.054333
                            CHANNELS 3 Zrotation Yrotation Xrotation
                            JOINT LeftHandThumb1
                            {
                                OFFSET 0.218903 -0.128645 0.283837
                                CHANNELS 3 Zrotation Yrotation Xrotation
                                JOINT LeftHandThumb2
                                {
                                    OFFSET 0.137157 -0.025101 0.077902
                                    CHANNELS 3 Zrotation Yrotation Xrotation
                                    JOINT LeftHandThumb3
                                    {
                                        OFFSET 0.158232 -0.089941 -0.020314
                                        CHANNELS 3 Zrotation Yrotation Xrotation
                                        End Site
                                        {
                                            OFFSET 0.245599 -0.082026 0.069206
                                        }
                                    }
                                }
                            }
                            JOINT LeftHandFore1
                            {
                                OFFSET 0.767340 -0.016076 0.196678
                                CHANNELS 3 Zrotation Yrotation Xrotation
                                JOINT LeftHandFore2
                                {
                                    OFFSET 0.101154 -0.191429 -0.010872
                                    CHANNELS 3 Zrotation Yrotation Xrotation
                                    JOINT LeftHandFore3
                                    {
                                        OFFSET -0.120352 -0.047693 0.001901
                                        CHANNELS 3 Zrotation Yrotation Xrotation
                                        End Site
                                        {
                                            OFFSET -0.146356 0.126092 -0.006896
                                        }
                                    }
                                }
                            }
                            JOINT LeftHandMiddle1
                            {
                                OFFSET 0.709887 -0.008320 0.018526
                                CHANNELS 3 Zrotation Yrotation Xrotation
                                JOINT LeftHandMiddle2
                                {
                                    OFFSET 0.063598 -0.236580 0.006996
                                    CHANNELS 3 Zrotation Yrotation Xrotation
                                    JOINT LeftHandMiddle3
                                    {
                                        OFFSET -0.146204 -0.002444 -0.001223
                                        CHANNELS 3 Zrotation Yrotation Xrotation
                                        End Site
                                        {
                                            OFFSET -0.086772 0.219290 0.003599
                                        }
                                    }
                                }
                            }
                            JOINT LeftHandRing1
                            {
                                OFFSET 0.743817 -0.005823 -0.153668
                                CHANNELS 3 Zrotation Yrotation Xrotation
                                JOINT LeftHandRing2
                                {
                                    OFFSET 0.057737 -0.348425 -0.000069
                                    CHANNELS 3 Zrotation Yrotation Xrotation
                                    JOINT LeftHandRing3
                                    {
                                        OFFSET -0.131198 0.037272 0.001822
                                        CHANNELS 3 Zrotation Yrotation Xrotation
                                        End Site
                                        {
                                            OFFSET -0.044074 0.111637 -0.003784
                                        }
                                    }
                                }
                            }
                            JOINT LeftHandLittle1
                            {
                                OFFSET 0.689408 -0.053302 -0.308304
                                CHANNELS 3 Zrotation Yrotation Xrotation
                                JOINT LeftHandLittle2
                                {
                                    OFFSET 0.041486 -0.190577 0.003662
                                    CHANNELS 3 Zrotation Yrotation Xrotation
                                    JOINT LeftHandLittle3
                                    {
                                        OFFSET -0.115407 0.020761 -0.027320
                                        CHANNELS 3 Zrotation Yrotation Xrotation
                                        End Site
                                        {
                                            OFFSET -0.117784 0.145626 -0.034767
                                        }
                                    }
                                }
                            }
                        }
                    }
                }
            }
            JOINT RightCollar
            {
                OFFSET -0.167536 0.778237 -0.168280
                CHANNELS 3 Zrotation Yrotation Xrotation
                JOINT RightShoulder
                {
                    OFFSET -0.831514 -0.002900 0.006457
                    CHANNELS 3 Zrotation Yrotation Xrotation
                    JOINT RightElbow
                    {
                        OFFSET -2.272872 -0.026639 0.059313
                        CHANNELS 3 Zrotation Yrotation Xrotation
                        JOINT RightWrist
                        {
                            OFFSET -2.081982 -0.024402 0.054331
                            CHANNELS 3 Zrotation Yrotation Xrotation
                            JOINT RightHandThumb1
                            {
                                OFFSET -0.218911 -0.128571 0.283837
                                CHANNELS 3 Zrotation Yrotation Xrotation
                                JOINT RightHandThumb2
                                {
                                    OFFSET -0.137157 -0.025101 0.077902
                                    CHANNELS 3 Zrotation Yrotation Xrotation
                                    JOINT RightHandThumb3
                                    {
                                        OFFSET -0.150255 -0.104139 -0.010849
                                        CHANNELS 3 Zrotation Yrotation Xrotation
                                        End Site
                                        {
                                            OFFSET -0.239384 -0.093127 0.076545
                                        }
                                    }
                                }
                            }
                            JOINT RightHandFore1
                            {
                                OFFSET -0.767344 -0.015991 0.196679
                                CHANNELS 3 Zrotation Yrotation Xrotation
                                JOINT RightHandFore2
                                {
                                    OFFSET -0.101199 -0.191409 -0.010870
                                    CHANNELS 3 Zrotation Yrotation Xrotation
                                    JOINT RightHandFore3
                                    {
                                        OFFSET 0.119960 -0.046610 -0.014113
                                        CHANNELS 3 Zrotation Yrotation Xrotation
                                        End Site
                                        {
                                            OFFSET 0.146939 0.124402 0.017317
                                        }
                                    }
                                }
                            }
                            JOINT RightHandMiddle1
                            {
                                OFFSET -0.709887 -0.008302 0.018525
                                CHANNELS 3 Zrotation Yrotation Xrotation
                                JOINT RightHandMiddle2
                                {
                                    OFFSET -0.063573 -0.236583 0.006996
                                    CHANNELS 3 Zrotation Yrotation Xrotation
                                    JOINT RightHandMiddle3
                                    {
                                        OFFSET 0.145580 -0.002625 -0.013559
                                        CHANNELS 3 Zrotation Yrotation Xrotation
                                        End Site
                                        {
                                            OFFSET 0.085606 0.218925 -0.019338
                                        }
                                    }
                                }
                            }
                            JOINT RightHandRing1
                            {
                                OFFSET -0.743819 -0.005785 -0.153669
                                CHANNELS 3 Zrotation Yrotation Xrotation
                                JOINT RightHandRing2
                                {
                                    OFFSET -0.057762 -0.348420 -0.000066
                                    CHANNELS 3 Zrotation Yrotation Xrotation
                                    JOINT RightHandRing3
                                    {
                                        OFFSET 0.129585 0.037568 -0.020035
                                        CHANNELS 3 Zrotation Yrotation Xrotation
                                        End Site
                                        {
                                            OFFSET 0.044335 0.111600 0.000059
                                        }
                                    }
                                }
                            }
                            JOINT RightHandLittle1
                            {
                                OFFSET -0.689403 -0.053298 -0.308303
                                CHANNELS 3 Zrotation Yrotation Xrotation
                                JOINT RightHandLittle2
                                {
                                    OFFSET -0.041493 -0.190578 0.003662
                                    CHANNELS 3 Zrotation Yrotation Xrotation
                                    JOINT RightHandLittle3
                                    {
                                        OFFSET 0.118597 0.020530 -0.002987
                                        CHANNELS 3 Zrotation Yrotation Xrotation
                                        End Site
                                        {
                                            OFFSET 0.123091 0.145267 0.005904
                                        }
                                    }
                                }
                            }
                        }
                    }
                }
            }
        }
    }
    JOINT LeftHip
    {
        OFFSET 0.685143 0.673822 -0.044491
        CHANNELS 3 Zrotation Yrotation Xrotation
        JOINT LeftKnee
        {
            OFFSET 0.085364 -3.750208 0.017676
            CHANNELS 3 Zrotation Yrotation Xrotation
            JOINT LeftAnkle
            {
                OFFSET 0.094583 -4.155206 0.019585
                CHANNELS 3 Zrotation Yrotation Xrotation
                JOINT LeftToe
                {
                    OFFSET -0.000000 -0.395925 0.621478
                    CHANNELS 3 Zrotation Yrotation Xrotation
                    End Site
                    {
                        OFFSET -0.000000 -0.077878 0.321152
                    }
                }
            }
        }
    }
    JOINT RightHip
    {
        OFFSET -0.685143 0.673822 -0.044492
        CHANNELS 3 Zrotation Yrotation Xrotation
        JOINT RightKnee
        {
            OFFSET -0.085364 -3.750208 0.017677
            CHANNELS 3 Zrotation Yrotation Xrotation
            JOINT RightAnkle
            {
                OFFSET -0.094583 -4.155206 0.019585
                CHANNELS 3 Zrotation Yrotation Xrotation
                JOINT RightToe
                {
                    OFFSET -0.000000 -0.395925 0.621478
                    CHANNELS 3 Zrotation Yrotation Xrotation
                    End Site
                    {
                        OFFSET -0.000000 -0.077878 0.321152
                    }
                }
            }
        }
    }
}
MOTION
Frames: 4
Frame Time: 0.033333
0.100514 8.322909 -0.497747 -177.960678 1.133704 -179.877136 1.973268 -1.726990 -3.659770 -0.017086 0.268158 -3.645295 0.000003 -0.268706 4.684103 0.000005 -0.000010 11.067125 -14.614516 2.449081 0.077340 -59.191097 8.637804 -2.057065 -0.000003 -0.000000 0.000000 14.640191 -0.301773 4.771891 0.000003 0.000001 -0.000001 0.000002 0.000001 -0.000002 0.000003 0.000001 -0.000001 0.000005 0.000001 -0.000000 0.000002 0.000000 0.000000 -0.000002 0.000000 0.000001 -0.000002 0.000001 0.000000 0.000003 -0.000000 0.000000 0.000000 0.000000 0.000001 0.000003 0.000001 -0.000000 0.000003 -0.000001 0.000001 0.000000 -0.000001 -0.000000 0.000002 -0.000000 -0.000000 -0.000003 0.000000 0.000002 0.000000 -0.000001 -0.000001 14.416551 -2.716439 -0.058393 57.783714 -7.810037 -1.660858 -0.000001 -0.000000 0.000001 -5.629897 -1.683533 4.045925 -0.000003 -0.000000 -0.000001 -0.000000 0.000004 0.000001 0.000005 -0.000003 0.000002 -0.000001 -0.000000 0.000001 -0.000001 -0.000000 0.000000 -0.000006 0.000001 0.000000 -0.000003 -0.000000 0.000000 -0.000001 -0.000001 0.000000 0.000001 0.000001 0.000001 0.000001 0.000001 0.000001 0.000004 0.000001 0.000000 -0.000003 -0.000001 0.000000 -0.000001 0.000001 0.000001 -0.000003 -0.000001 -0.000001 -0.000001 -0.000001 0.000000 15.303056 28.304949 -0.438159 0.010350 0.163964 7.222479 -7.156013 -13.556997 -3.609631 0.010491 0.045359 -0.606700 -2.088813 -12.782395 -2.404017 -0.021260 -0.234549 10.360554 -0.299277 2.119471 -11.606049 -0.031864 -0.157991 -2.228580
0.089140 8.322790 -0.486782 -178.082077 1.128518 -179.881241 1.852579 -1.636645 -3.668272 -0.012386 0.253841 -3.654111 -0.004192 -0.188223 4.701335 -0.006432 0.125008 11.101784 -14.612053 2.466326 0.073652 -59.178371 8.648109 -2.049441 -0.000003 0.000001 0.000000 14.640258 -0.310558 4.769104 -0.000001 0.000005 0.000001 -0.000004 0.000001 -0.000003 -0.000003 -0.000000 0.000002 0.000004 0.000003 0.000003 -0.000005 -0.000000 0.000000 0.000001 -0.000000 0.000001 -0.000008 0.000003 0.000002 0.000007 0.000000 -0.000000 -0.000003 -0.000000 0.000000 -0.000011 0.000002 0.000003 0.000009 -0.000000 0.000000 -0.000006 -0.000000 -0.000001 -0.000006 -0.000001 0.000002 0.000001 0.000001 -0.000000 0.000002 -0.000000 0.000001 14.415447 -2.705122 -0.054746 57.784515 -7.819543 -1.655773 -0.000001 -0.000001 -0.000001 -5.629807 -1.656999 4.042992 -0.000003 0.000012 -0.000011 -0.000003 0.000004 0.000002 0.000005 -0.000001 0.000000 -0.000004 -0.000002 -0.000002 -0.000002 0.000000 0.000000 0.000001 0.000001 0.000000 -0.000000 -0.000002 -0.000002 0.000005 -0.000000 0.000000 0.000001 -0.000000 -0.000001 0.000014 0.000001 -0.000002 -0.000002 0.000002 0.000000 -0.000000 -0.000000 0.000000 -0.000003 0.000002 -0.000003 0.000001 -0.000000 -0.000001 -0.000000 -0.000000 0.000000 15.217168 28.410292 -0.301465 0.009625 0.158124 6.963878 -7.225900 -13.344566 -3.332924 0.011855 0.051600 -0.690985 -2.276305 -12.822723 -2.613336 -0.022268 -0.240001 10.604183 -0.252128 2.153922 -11.633740 -0.031582 -0.156147 -2.196591
0.056994 8.322491 -0.455707 -178.425186 1.113515 -179.892242 1.511533 -1.385080 -3.691781 0.000919 0.213965 -3.678555 -0.017464 0.003302 4.749151 -0.021190 0.411669 11.197033 -14.605033 2.514451 0.063391 -59.142376 8.677061 -2.027180 0.000007 -0.000000 0.000000 14.640458 -0.336389 4.760933 -0.000002 0.000001 0.000004 -0.000004 -0.000000 0.000001 0.000005 0.000001 -0.000002 -0.000004 0.000005 0.000001 -0.000006 -0.000000 0.000000 -0.000000 0.000000 0.000001 -0.000004 0.000004 0.000001 -0.000007 -0.000000 -0.000000 -0.000001 -0.000000 -0.000000 -0.000009 0.000003 0.000001 -0.000007 -0.000000 0.000001 0.000001 -0.000001 0.000000 -0.000002 0.000002 0.000000 -0.000004 -0.000001 0.000000 -0.000000 -0.000001 -0.000001 14.412298 -2.673326 -0.044581 57.786167 -7.845155 -1.640452 -0.000003 -0.000000 0.000000 -5.629566 -1.580362 4.034529 -0.000008 0.000012 -0.000011 -0.000006 0.000001 0.000002 0.000005 -0.000001 0.000003 -0.000005 -0.000002 0.000002 0.000002 -0.000000 -0.000000 -0.000001 0.000000 -0.000000 -0.000002 -0.000003 0.000001 -0.000005 -0.000000 0.000000 0.000002 0.000001 -0.000001 0.000000 0.000001 0.000001 0.000002 -0.000000 -0.000001 -0.000001 0.000000 -0.000000 -0.000001 0.000003 0.000002 0.000000 -0.000001 -0.000002 0.000000 -0.000000 0.000002 14.975193 28.716301 0.103688 0.007622 0.140740 6.195050 -7.421052 -12.756972 -2.531763 0.015519 0.068831 -0.924708 -2.806524 -12.940566 -3.179283 -0.025016 -0.254245 11.241499 -0.119373 2.252761 -11.686952 -0.030735 -0.150688 -2.103061
0.007041 8.322144 -0.407256 -178.958313 1.089534 -179.908157 0.981538 -1.001534 -3.727269 0.021528 0.153169 -3.715567 -0.040853 0.231004 4.821723 -0.037436 0.727198 11.340012 -14.594019 2.587977 0.047756 -59.085701 8.721578 -1.991076 0.000003 0.000000 0.000000 14.640774 -0.378480 4.747657 -0.000009 -0.000006 0.000001 -0.000001 0.000003 -0.000003 0.000003 0.000001 0.000000 0.000003 -0.000002 0.000001 -0.000002 0.000001 0.000001 0.000006 0.000001 0.000002 0.000015 -0.000003 -0.000000 -0.000026 -0.000001 0.000001 0.000001 0.000000 0.000000 -0.000023 -0.000003 0.000001 0.000010 -0.000000 0.000000 0.000001 -0.000001 0.000000 -0.000019 -0.000008 -0.000001 -0.000009 -0.000002 0.000001 -0.000002 -0.000001 0.000001 14.407470 -2.624301 -0.029083 57.787136 -7.882462 -1.614735 0.000001 -0.000000 0.000000 -5.629201 -1.458079 4.021019 -0.000006 0.000017 -0.000015 -0.000005 0.000003 0.000003 0.000003 -0.000001 0.000001 0.000007 -0.000000 -0.000003 -0.000000 -0.000000 -0.000000 -0.000009 0.000002 0.000001 0.000014 0.000001 -0.000003 0.000001 -0.000000 0.000000 0.000006 -0.000000 0.000000 0.000015 0.000002 -0.000003 -0.000002 0.000001 0.000000 0.000001 -0.000001 0.000000 0.000003 0.000004 -0.000003 -0.000002 -0.000000 -0.000001 -0.000000 -0.000001 0.000002 14.600825 29.209423 0.838989 0.004567 0.109030 4.795424 -7.725548 -11.857260 -1.187797 0.020735 0.094690 -1.279166 -3.630597 -13.131541 -3.989562 -0.028947 -0.273275 12.095201 0.086228 2.408456 -11.702716 -0.029279 -0.141643 -1.951841
